<?xml version="1.0" encoding="UTF-8" standalone="no"?>
<svg
   xmlns:dc="http://purl.org/dc/elements/1.1/"
   xmlns:cc="http://creativecommons.org/ns#"
   xmlns:rdf="http://www.w3.org/1999/02/22-rdf-syntax-ns#"
   xmlns:svg="http://www.w3.org/2000/svg"
   xmlns="http://www.w3.org/2000/svg"
   xmlns:sodipodi="http://sodipodi.sourceforge.net/DTD/sodipodi-0.dtd"
   xmlns:inkscape="http://www.inkscape.org/namespaces/inkscape"
   width="64"
   height="48"
   id="svg2"
   version="1.1"
   inkscape:version="0.48.3.1 r9886"
   sodipodi:docname="logo.svg"
   inkscape:export-filename="logo.png"
   inkscape:export-xdpi="90"
   inkscape:export-ydpi="90">
  <metadata
     id="metadata18">
    <rdf:RDF>
      <cc:Work
         rdf:about="">
        <dc:format>image/svg+xml</dc:format>
        <dc:type
           rdf:resource="http://purl.org/dc/dcmitype/StillImage" />
        <dc:title>drum sticks</dc:title>
      </cc:Work>
    </rdf:RDF>
  </metadata>
  <defs
     id="defs16">
    <filter
       id="filter3801"
       inkscape:label="Darken edges"
       inkscape:menu="Shadows and Glows"
       inkscape:menu-tooltip="Darken the edges with an inner blur"
       color-interpolation-filters="sRGB">
      <feGaussianBlur
         id="feGaussianBlur3803"
         result="result6"
         stdDeviation="1.5" />
      <feComposite
         id="feComposite3805"
         in2="result6"
         operator="atop"
         in="SourceGraphic"
         result="result8" />
      <feComposite
         id="feComposite3807"
         in2="SourceAlpha"
         in="result8"
         operator="atop"
         result="result9" />
    </filter>
    <filter
       id="filter3809"
       inkscape:label="Darken edges"
       inkscape:menu="Shadows and Glows"
       inkscape:menu-tooltip="Darken the edges with an inner blur"
       color-interpolation-filters="sRGB">
      <feGaussianBlur
         id="feGaussianBlur3811"
         result="result6"
         stdDeviation="1.5" />
      <feComposite
         id="feComposite3813"
         in2="result6"
         operator="atop"
         in="SourceGraphic"
         result="result8" />
      <feComposite
         id="feComposite3815"
         in2="SourceAlpha"
         in="result8"
         operator="atop"
         result="result9" />
    </filter>
  </defs>
  <sodipodi:namedview
     pagecolor="#ffffff"
     bordercolor="#666666"
     borderopacity="1"
     objecttolerance="10"
     gridtolerance="10"
     guidetolerance="10"
     inkscape:pageopacity="0"
     inkscape:pageshadow="2"
     inkscape:window-width="1482"
     inkscape:window-height="1040"
     id="namedview14"
     showgrid="false"
     inkscape:zoom="6.6640625"
     inkscape:cx="32"
     inkscape:cy="37.825312"
     inkscape:window-x="183"
     inkscape:window-y="243"
     inkscape:window-maximized="0"
     inkscape:current-layer="svg2" />
  <!-- Created with SVG-edit - http://svg-edit.googlecode.com/ -->
  <title
     id="title4">drum sticks</title>
  <g
     id="g3841"
     transform="matrix(1.1275818,0,0,1.1275818,-84.045291,-29.284123)">
    <g
       style="fill:#3777ae;fill-opacity:1;stroke:#3777ae;stroke-opacity:1;filter:url(#filter3809)"
       transform="matrix(0.17377358,-0.04656249,0.04656249,0.17377358,-26.063554,23.558838)"
       id="g6">
      <title
         id="title8">Layer 1</title>
      <ellipse
         style="fill:#3777ae;fill-opacity:1;stroke:#3777ae;stroke-width:5;stroke-opacity:1;stroke-dasharray:none"
         sodipodi:ry="0"
         sodipodi:rx="1"
         sodipodi:cy="151"
         sodipodi:cx="-147"
         ry="0"
         rx="1"
         id="svg_4"
         cy="151"
         cx="-147"
         stroke-linecap="null"
         stroke-linejoin="null" />
      <ellipse
         d="m 232.93911,254.62123 c 0,5.90763 -11.88101,10.69671 -26.53698,10.69671 -14.65597,0 -26.53698,-4.78908 -26.53698,-10.69671 0,-5.90763 11.88101,-10.69671 26.53698,-10.69671 14.65597,0 26.53698,4.78908 26.53698,10.69671 z"
         style="fill:#3777ae;fill-opacity:1;stroke:#3777ae;stroke-width:5;stroke-opacity:1;stroke-dasharray:none"
         sodipodi:ry="10.696712"
         sodipodi:rx="26.536982"
         sodipodi:cy="254.62123"
         sodipodi:cx="206.40213"
         transform="matrix(0.85108888,-0.52502164,0.52502164,0.85108888,-102.94628,146.28037)"
         ry="10.696712"
         rx="26.536982"
         id="svg_6"
         cy="254.62123"
         cx="206.40213"
         stroke-linecap="null"
         stroke-linejoin="null" />
      <ellipse
         d="m 468.40955,184 c 0,4.46485 -66.66908,8.08432 -148.90955,8.08432 -82.24047,0 -148.90955,-3.61947 -148.90955,-8.08432 0,-4.46485 66.66908,-8.08432 148.90955,-8.08432 82.24047,0 148.90955,3.61947 148.90955,8.08432 z"
         style="fill:#3777ae;fill-opacity:1;stroke:#3777ae;stroke-width:5;stroke-opacity:1;stroke-dasharray:none"
         sodipodi:ry="8.0843172"
         sodipodi:rx="148.90955"
         sodipodi:cy="184"
         sodipodi:cx="319.5"
         transform="matrix(0.84799815,-0.52999919,0.52999919,0.84799815,-48.955259,197.30308)"
         ry="8.0843172"
         rx="148.90955"
         id="svg_40"
         cy="184"
         cx="319.5"
         stroke-linecap="null"
         stroke-linejoin="null" />
      <path
         sodipodi:nodetypes="ccacc"
         style="fill:#3777ae;fill-opacity:1;stroke:#3777ae;stroke-width:5;stroke-opacity:1;stroke-dasharray:none"
         inkscape:connector-curvature="0"
         id="svg_42"
         d="M 184.99998,267.00043 C 184.99998,267.8909 451,120.96201 451,120.96201 c 0,0 9.06825,-17.26762 6.60443,-25.794222 -2.04255,-7.068716 -16.03705,-15.167789 -16.03705,-15.167789 z"
         stroke-linecap="null"
         stroke-linejoin="null" />
    </g>
    <g
       style="fill:#ffe253;fill-opacity:1;stroke:#ffe253;stroke-opacity:1;filter:url(#filter3801)"
       id="g2995"
       transform="matrix(-0.16940988,-0.04539324,-0.04539324,0.16940988,87.827041,26.089103)">
      <title
         id="title2997">Layer 1</title>
      <ellipse
         stroke-linejoin="null"
         stroke-linecap="null"
         cx="-147"
         cy="151"
         id="ellipse2999"
         rx="1"
         ry="0"
         sodipodi:cx="-147"
         sodipodi:cy="151"
         sodipodi:rx="1"
         sodipodi:ry="0"
         style="fill:#ffe253;fill-opacity:1;stroke:#ffe253;stroke-width:5;stroke-opacity:1;stroke-dasharray:none" />
      <ellipse
         stroke-linejoin="null"
         stroke-linecap="null"
         cx="206.40213"
         cy="254.62123"
         id="ellipse3001"
         rx="26.536982"
         ry="10.696712"
         transform="matrix(0.85108888,-0.52502164,0.52502164,0.85108888,-102.94628,146.28037)"
         sodipodi:cx="206.40213"
         sodipodi:cy="254.62123"
         sodipodi:rx="26.536982"
         sodipodi:ry="10.696712"
         style="fill:#ffe253;fill-opacity:1;stroke:#ffe253;stroke-width:5;stroke-opacity:1;stroke-dasharray:none"
         d="m 232.93911,254.62123 c 0,5.90763 -11.88101,10.69671 -26.53698,10.69671 -14.65597,0 -26.53698,-4.78908 -26.53698,-10.69671 0,-5.90763 11.88101,-10.69671 26.53698,-10.69671 14.65597,0 26.53698,4.78908 26.53698,10.69671 z" />
      <ellipse
         stroke-linejoin="null"
         stroke-linecap="null"
         cx="319.5"
         cy="184"
         id="ellipse3003"
         rx="148.90955"
         ry="8.0843172"
         transform="matrix(0.84799815,-0.52999919,0.52999919,0.84799815,-48.955259,197.30308)"
         sodipodi:cx="319.5"
         sodipodi:cy="184"
         sodipodi:rx="148.90955"
         sodipodi:ry="8.0843172"
         style="fill:#ffe253;fill-opacity:1;stroke:#ffe253;stroke-width:5;stroke-opacity:1;stroke-dasharray:none"
         d="m 468.40955,184 c 0,4.46485 -66.66908,8.08432 -148.90955,8.08432 -82.24047,0 -148.90955,-3.61947 -148.90955,-8.08432 0,-4.46485 66.66908,-8.08432 148.90955,-8.08432 82.24047,0 148.90955,3.61947 148.90955,8.08432 z" />
      <path
         stroke-linejoin="null"
         stroke-linecap="null"
         d="M 184.99998,267.00043 C 184.99998,267.8909 451,120.96201 451,120.96201 c 0,0 9.06825,-17.26762 6.60443,-25.794222 -2.04255,-7.068716 -16.03705,-15.167789 -16.03705,-15.167789 z"
         id="path3005"
         inkscape:connector-curvature="0"
         style="fill:#ffe253;fill-opacity:1;stroke:#ffe253;stroke-width:5;stroke-opacity:1;stroke-dasharray:none"
         sodipodi:nodetypes="ccacc" />
    </g>
  </g>
  <g
     id="g3855"
     transform="translate(-0.02246412,20.015752)">
    <g
       id="g3817"
       transform="matrix(0.17990365,0,0,0.17990365,-19.850817,-28.444623)"
       style="fill:#3777ae;fill-opacity:1;stroke:#3777ae;stroke-opacity:1;filter:url(#filter3809)">
      <title
         id="title3819">Layer 1</title>
      <ellipse
         stroke-linejoin="null"
         stroke-linecap="null"
         cx="-147"
         cy="151"
         id="ellipse3821"
         rx="1"
         ry="0"
         sodipodi:cx="-147"
         sodipodi:cy="151"
         sodipodi:rx="1"
         sodipodi:ry="0"
         style="fill:#3777ae;fill-opacity:1;stroke:#3777ae;stroke-width:5;stroke-opacity:1;stroke-dasharray:none" />
      <ellipse
         stroke-linejoin="null"
         stroke-linecap="null"
         cx="206.40213"
         cy="254.62123"
         id="ellipse3823"
         rx="26.536982"
         ry="10.696712"
         transform="matrix(0.85108888,-0.52502164,0.52502164,0.85108888,-102.94628,146.28037)"
         sodipodi:cx="206.40213"
         sodipodi:cy="254.62123"
         sodipodi:rx="26.536982"
         sodipodi:ry="10.696712"
         style="fill:#3777ae;fill-opacity:1;stroke:#3777ae;stroke-width:5;stroke-opacity:1;stroke-dasharray:none"
         d="m 232.93911,254.62123 c 0,5.90763 -11.88101,10.69671 -26.53698,10.69671 -14.65597,0 -26.53698,-4.78908 -26.53698,-10.69671 0,-5.90763 11.88101,-10.69671 26.53698,-10.69671 14.65597,0 26.53698,4.78908 26.53698,10.69671 z" />
      <ellipse
         stroke-linejoin="null"
         stroke-linecap="null"
         cx="319.5"
         cy="184"
         id="ellipse3825"
         rx="148.90955"
         ry="8.0843172"
         transform="matrix(0.84799815,-0.52999919,0.52999919,0.84799815,-48.955259,197.30308)"
         sodipodi:cx="319.5"
         sodipodi:cy="184"
         sodipodi:rx="148.90955"
         sodipodi:ry="8.0843172"
         style="fill:#3777ae;fill-opacity:1;stroke:#3777ae;stroke-width:5;stroke-opacity:1;stroke-dasharray:none"
         d="m 468.40955,184 c 0,4.46485 -66.66908,8.08432 -148.90955,8.08432 -82.24047,0 -148.90955,-3.61947 -148.90955,-8.08432 0,-4.46485 66.66908,-8.08432 148.90955,-8.08432 82.24047,0 148.90955,3.61947 148.90955,8.08432 z" />
      <path
         stroke-linejoin="null"
         stroke-linecap="null"
         d="M 184.99998,267.00043 C 184.99998,267.8909 451,120.96201 451,120.96201 c 0,0 9.06825,-17.26762 6.60443,-25.794222 -2.04255,-7.068716 -16.03705,-15.167789 -16.03705,-15.167789 z"
         id="path3827"
         inkscape:connector-curvature="0"
         style="fill:#3777ae;fill-opacity:1;stroke:#3777ae;stroke-width:5;stroke-opacity:1;stroke-dasharray:none"
         sodipodi:nodetypes="ccacc" />
    </g>
    <g
       transform="matrix(-0.17538601,0,0,0.17538601,81.770315,-25.512488)"
       id="g3829"
       style="fill:#ffe253;fill-opacity:1;stroke:#ffe253;stroke-opacity:1;filter:url(#filter3801)">
      <title
         id="title3831">Layer 1</title>
      <ellipse
         style="fill:#ffe253;fill-opacity:1;stroke:#ffe253;stroke-width:5;stroke-opacity:1;stroke-dasharray:none"
         sodipodi:ry="0"
         sodipodi:rx="1"
         sodipodi:cy="151"
         sodipodi:cx="-147"
         ry="0"
         rx="1"
         id="ellipse3833"
         cy="151"
         cx="-147"
         stroke-linecap="null"
         stroke-linejoin="null" />
      <ellipse
         d="m 232.93911,254.62123 c 0,5.90763 -11.88101,10.69671 -26.53698,10.69671 -14.65597,0 -26.53698,-4.78908 -26.53698,-10.69671 0,-5.90763 11.88101,-10.69671 26.53698,-10.69671 14.65597,0 26.53698,4.78908 26.53698,10.69671 z"
         style="fill:#ffe253;fill-opacity:1;stroke:#ffe253;stroke-width:5;stroke-opacity:1;stroke-dasharray:none"
         sodipodi:ry="10.696712"
         sodipodi:rx="26.536982"
         sodipodi:cy="254.62123"
         sodipodi:cx="206.40213"
         transform="matrix(0.85108888,-0.52502164,0.52502164,0.85108888,-102.94628,146.28037)"
         ry="10.696712"
         rx="26.536982"
         id="ellipse3835"
         cy="254.62123"
         cx="206.40213"
         stroke-linecap="null"
         stroke-linejoin="null" />
      <ellipse
         d="m 468.40955,184 c 0,4.46485 -66.66908,8.08432 -148.90955,8.08432 -82.24047,0 -148.90955,-3.61947 -148.90955,-8.08432 0,-4.46485 66.66908,-8.08432 148.90955,-8.08432 82.24047,0 148.90955,3.61947 148.90955,8.08432 z"
         style="fill:#ffe253;fill-opacity:1;stroke:#ffe253;stroke-width:5;stroke-opacity:1;stroke-dasharray:none"
         sodipodi:ry="8.0843172"
         sodipodi:rx="148.90955"
         sodipodi:cy="184"
         sodipodi:cx="319.5"
         transform="matrix(0.84799815,-0.52999919,0.52999919,0.84799815,-48.955259,197.30308)"
         ry="8.0843172"
         rx="148.90955"
         id="ellipse3837"
         cy="184"
         cx="319.5"
         stroke-linecap="null"
         stroke-linejoin="null" />
      <path
         sodipodi:nodetypes="ccacc"
         style="fill:#ffe253;fill-opacity:1;stroke:#ffe253;stroke-width:5;stroke-opacity:1;stroke-dasharray:none"
         inkscape:connector-curvature="0"
         id="path3839"
         d="M 184.99998,267.00043 C 184.99998,267.8909 451,120.96201 451,120.96201 c 0,0 9.06825,-17.26762 6.60443,-25.794222 -2.04255,-7.068716 -16.03705,-15.167789 -16.03705,-15.167789 z"
         stroke-linecap="null"
         stroke-linejoin="null" />
    </g>
  </g>
</svg>
